<svg xmlns="http://www.w3.org/2000/svg" width="375" viewBox="0 0 375 375" height="375" version="1.0"><defs><clipPath id="a"><path d="M 129 101 L 314.679688 101 L 314.679688 217 L 129 217 Z M 129 101"/></clipPath><clipPath id="b"><path d="M 60.429688 81.222656 L 301 81.222656 L 301 268 L 60.429688 268 Z M 60.429688 81.222656"/></clipPath><clipPath id="c"><path d="M 167 261 L 200 261 L 200 293.445312 L 167 293.445312 Z M 167 261"/></clipPath><clipPath id="d"><path d="M 238 261 L 270 261 L 270 293.445312 L 238 293.445312 Z M 238 261"/></clipPath></defs><g clip-path="url(#a)" fill-rule="evenodd"><path d="M 271.742188 216.988281 L 160.609375 216.988281 C 159.078125 216.988281 157.839844 215.75 157.839844 214.222656 C 157.839844 212.695312 159.078125 211.457031 160.609375 211.457031 L 271.742188 211.457031 C 285.785156 211.457031 290.304688 196.066406 291.355469 191.347656 L 308.597656 114.003906 C 308.988281 112.242188 308.203125 110.792969 307.476562 109.886719 C 305.90625 107.929688 303.109375 106.617188 300.53125 106.617188 L 134.738281 106.617188 L 134.738281 107.550781 C 134.738281 109.078125 133.496094 110.316406 131.964844 110.316406 C 130.4375 110.316406 129.195312 109.078125 129.195312 107.550781 L 129.195312 103.851562 C 129.195312 102.324219 130.4375 101.085938 131.964844 101.085938 L 300.53125 101.085938 C 304.832031 101.085938 309.15625 103.132812 311.800781 106.425781 C 313.902344 109.042969 314.6875 112.160156 314.007812 115.207031 L 296.765625 192.550781 C 293.359375 207.851562 284.003906 216.988281 271.742188 216.988281 Z M 271.742188 216.988281"/><path d="M 271.742188 216.988281 L 160.609375 216.988281 C 159.078125 216.988281 157.839844 215.75 157.839844 214.222656 C 157.839844 212.695312 159.078125 211.457031 160.609375 211.457031 L 271.742188 211.457031 C 285.785156 211.457031 290.304688 196.066406 291.355469 191.347656 L 308.597656 114.003906 C 308.988281 112.242188 308.203125 110.792969 307.476562 109.886719 C 305.90625 107.929688 303.109375 106.617188 300.53125 106.617188 L 134.738281 106.617188 L 134.738281 107.550781 C 134.738281 109.078125 133.496094 110.316406 131.964844 110.316406 C 130.4375 110.316406 129.195312 109.078125 129.195312 107.550781 L 129.195312 103.851562 C 129.195312 102.324219 130.4375 101.085938 131.964844 101.085938 L 300.53125 101.085938 C 304.832031 101.085938 309.15625 103.132812 311.800781 106.425781 C 313.902344 109.042969 314.6875 112.160156 314.007812 115.207031 L 296.765625 192.550781 C 293.359375 207.851562 284.003906 216.988281 271.742188 216.988281 Z M 271.742188 216.988281"/></g><g clip-path="url(#b)" fill-rule="evenodd"><path d="M 148.890625 254.777344 C 150.109375 258.878906 153.882812 261.675781 158.203125 261.589844 L 285.574219 261.589844 C 290.835938 261.589844 295.121094 257.320312 295.121094 252.066406 C 295.121094 246.816406 290.835938 242.542969 285.574219 242.542969 L 167.472656 242.542969 C 166.21875 242.542969 165.117188 241.703125 164.792969 240.496094 L 125.621094 94.605469 C 125.609375 94.554688 125.59375 94.507812 125.585938 94.457031 C 124.667969 90.074219 120.738281 86.898438 116.246094 86.898438 L 75.453125 86.894531 C 70.1875 86.894531 65.90625 91.167969 65.90625 96.421875 C 65.90625 101.671875 70.1875 105.945312 75.453125 105.945312 L 106.8125 105.945312 C 108.066406 105.945312 109.164062 106.785156 109.488281 107.992188 L 148.832031 254.519531 C 148.855469 254.605469 148.875 254.691406 148.890625 254.777344 Z M 157.976562 267.125 C 151.203125 267.125 145.238281 262.570312 143.464844 255.964844 C 143.441406 255.867188 143.417969 255.769531 143.40625 255.671875 L 104.683594 111.472656 L 75.453125 111.472656 C 67.132812 111.472656 60.363281 104.722656 60.363281 96.421875 C 60.363281 88.117188 67.132812 81.367188 75.453125 81.367188 L 116.246094 81.367188 C 123.320312 81.367188 129.511719 86.355469 130.992188 93.246094 L 169.597656 237.011719 L 285.574219 237.011719 C 293.894531 237.011719 300.664062 243.765625 300.664062 252.066406 C 300.664062 260.367188 293.894531 267.121094 285.574219 267.121094 L 158.253906 267.121094 C 158.164062 267.121094 158.070312 267.125 157.976562 267.125 Z M 157.976562 267.125"/><path d="M 148.890625 254.777344 C 150.109375 258.878906 153.882812 261.675781 158.203125 261.589844 L 285.574219 261.589844 C 290.835938 261.589844 295.121094 257.320312 295.121094 252.066406 C 295.121094 246.816406 290.835938 242.542969 285.574219 242.542969 L 167.472656 242.542969 C 166.21875 242.542969 165.117188 241.703125 164.792969 240.496094 L 125.621094 94.605469 C 125.609375 94.554688 125.59375 94.507812 125.585938 94.457031 C 124.667969 90.074219 120.738281 86.898438 116.246094 86.898438 L 75.453125 86.894531 C 70.1875 86.894531 65.90625 91.167969 65.90625 96.421875 C 65.90625 101.671875 70.1875 105.945312 75.453125 105.945312 L 106.8125 105.945312 C 108.066406 105.945312 109.164062 106.785156 109.488281 107.992188 L 148.832031 254.519531 C 148.855469 254.605469 148.875 254.691406 148.890625 254.777344 Z M 157.976562 267.125 C 151.203125 267.125 145.238281 262.570312 143.464844 255.964844 C 143.441406 255.867188 143.417969 255.769531 143.40625 255.671875 L 104.683594 111.472656 L 75.453125 111.472656 C 67.132812 111.472656 60.363281 104.722656 60.363281 96.421875 C 60.363281 88.117188 67.132812 81.367188 75.453125 81.367188 L 116.246094 81.367188 C 123.320312 81.367188 129.511719 86.355469 130.992188 93.246094 L 169.597656 237.011719 L 285.574219 237.011719 C 293.894531 237.011719 300.664062 243.765625 300.664062 252.066406 C 300.664062 260.367188 293.894531 267.121094 285.574219 267.121094 L 158.253906 267.121094 C 158.164062 267.121094 158.070312 267.125 157.976562 267.125 Z M 157.976562 267.125"/></g><path d="M 307.550781 134.210938 L 138.382812 134.210938 C 136.851562 134.210938 135.609375 132.972656 135.609375 131.445312 C 135.609375 129.917969 136.851562 128.679688 138.382812 128.679688 L 307.550781 128.679688 C 309.082031 128.679688 310.320312 129.917969 310.320312 131.445312 C 310.324219 132.972656 309.082031 134.210938 307.550781 134.210938 Z M 307.550781 134.210938" fill-rule="evenodd"/><path d="M 307.550781 134.210938 L 138.382812 134.210938 C 136.851562 134.210938 135.609375 132.972656 135.609375 131.445312 C 135.609375 129.917969 136.851562 128.679688 138.382812 128.679688 L 307.550781 128.679688 C 309.082031 128.679688 310.320312 129.917969 310.320312 131.445312 C 310.320312 132.972656 309.082031 134.210938 307.550781 134.210938 Z M 307.550781 134.210938" fill-rule="evenodd"/><path d="M 301.394531 161.804688 L 145.792969 161.804688 C 144.261719 161.804688 143.019531 160.566406 143.019531 159.035156 C 143.019531 157.507812 144.261719 156.269531 145.792969 156.269531 L 301.394531 156.269531 C 302.925781 156.269531 304.167969 157.507812 304.167969 159.039062 C 304.167969 160.5625 302.925781 161.804688 301.394531 161.804688 Z M 301.394531 161.804688" fill-rule="evenodd"/><path d="M 301.394531 161.804688 L 145.792969 161.804688 C 144.261719 161.804688 143.019531 160.566406 143.019531 159.035156 C 143.019531 157.507812 144.261719 156.269531 145.792969 156.269531 L 301.394531 156.269531 C 302.925781 156.269531 304.167969 157.507812 304.167969 159.039062 C 304.167969 160.5625 302.925781 161.804688 301.394531 161.804688 Z M 301.394531 161.804688" fill-rule="evenodd"/><path d="M 295.246094 189.394531 L 153.199219 189.394531 C 151.671875 189.394531 150.429688 188.15625 150.429688 186.628906 C 150.429688 185.101562 151.667969 183.863281 153.199219 183.863281 L 295.246094 183.863281 C 296.777344 183.863281 298.019531 185.101562 298.019531 186.628906 C 298.019531 188.15625 296.777344 189.394531 295.246094 189.394531 Z M 295.246094 189.394531" fill-rule="evenodd"/><path d="M 295.246094 189.394531 L 153.199219 189.394531 C 151.671875 189.394531 150.429688 188.15625 150.429688 186.628906 C 150.429688 185.101562 151.667969 183.863281 153.199219 183.863281 L 295.246094 183.863281 C 296.777344 183.863281 298.019531 185.101562 298.019531 186.628906 C 298.019531 188.15625 296.777344 189.394531 295.246094 189.394531 Z M 295.246094 189.394531" fill-rule="evenodd"/><path d="M 181.554688 216.988281 C 180.023438 216.988281 178.78125 215.75 178.78125 214.222656 L 178.78125 103.851562 C 178.78125 102.324219 180.023438 101.085938 181.554688 101.085938 C 183.085938 101.085938 184.324219 102.324219 184.324219 103.851562 L 184.324219 214.222656 C 184.324219 215.75 183.085938 216.988281 181.554688 216.988281 Z M 181.554688 216.988281" fill-rule="evenodd"/><path d="M 221.722656 216.988281 C 220.191406 216.988281 218.949219 215.75 218.949219 214.222656 L 218.949219 103.851562 C 218.949219 102.324219 220.191406 101.085938 221.722656 101.085938 C 223.253906 101.085938 224.492188 102.324219 224.492188 103.851562 L 224.492188 214.222656 C 224.492188 215.75 223.253906 216.988281 221.722656 216.988281 Z M 221.722656 216.988281" fill-rule="evenodd"/><path d="M 261.886719 216.988281 C 260.355469 216.988281 259.113281 215.75 259.113281 214.222656 L 259.113281 103.851562 C 259.113281 102.324219 260.355469 101.085938 261.886719 101.085938 C 263.417969 101.085938 264.660156 102.324219 264.660156 103.851562 L 264.660156 214.222656 C 264.660156 215.75 263.417969 216.988281 261.886719 216.988281 Z M 261.886719 216.988281" fill-rule="evenodd"/><g clip-path="url(#c)" fill-rule="evenodd"><path d="M 183.761719 267.121094 C 178.066406 267.121094 173.429688 271.746094 173.429688 277.429688 C 173.433594 283.113281 178.066406 287.734375 183.761719 287.734375 C 189.457031 287.734375 194.089844 283.113281 194.089844 277.429688 C 194.089844 271.746094 189.457031 267.121094 183.761719 267.121094 Z M 183.761719 293.269531 C 175.007812 293.269531 167.886719 286.164062 167.886719 277.429688 C 167.890625 268.695312 175.007812 261.589844 183.761719 261.589844 C 192.511719 261.589844 199.632812 268.695312 199.632812 277.429688 C 199.632812 286.164062 192.511719 293.269531 183.761719 293.269531 Z M 183.761719 293.269531"/><path d="M 183.761719 267.121094 C 178.066406 267.121094 173.429688 271.746094 173.429688 277.429688 C 173.429688 283.113281 178.066406 287.734375 183.761719 287.734375 C 189.457031 287.734375 194.089844 283.113281 194.089844 277.429688 C 194.089844 271.746094 189.457031 267.121094 183.761719 267.121094 Z M 183.761719 293.269531 C 175.007812 293.269531 167.886719 286.164062 167.886719 277.429688 C 167.886719 268.695312 175.007812 261.589844 183.761719 261.589844 C 192.511719 261.589844 199.632812 268.695312 199.632812 277.429688 C 199.632812 286.164062 192.511719 293.269531 183.761719 293.269531 Z M 183.761719 293.269531"/></g><g clip-path="url(#d)" fill-rule="evenodd"><path d="M 253.941406 267.121094 C 248.246094 267.121094 243.613281 271.746094 243.613281 277.429688 C 243.613281 283.113281 248.246094 287.734375 253.941406 287.734375 C 259.636719 287.734375 264.269531 283.113281 264.269531 277.429688 C 264.269531 271.746094 259.636719 267.121094 253.941406 267.121094 Z M 253.941406 293.269531 C 245.191406 293.269531 238.070312 286.164062 238.070312 277.429688 C 238.070312 268.695312 245.191406 261.589844 253.941406 261.589844 C 262.695312 261.589844 269.8125 268.695312 269.8125 277.429688 C 269.8125 286.164062 262.691406 293.269531 253.941406 293.269531 Z M 253.941406 293.269531"/><path d="M 253.941406 267.121094 C 248.246094 267.121094 243.613281 271.746094 243.613281 277.429688 C 243.613281 283.113281 248.246094 287.734375 253.941406 287.734375 C 259.636719 287.734375 264.269531 283.113281 264.269531 277.429688 C 264.269531 271.746094 259.636719 267.121094 253.941406 267.121094 Z M 253.941406 293.269531 C 245.191406 293.269531 238.070312 286.164062 238.070312 277.429688 C 238.070312 268.695312 245.191406 261.589844 253.941406 261.589844 C 262.695312 261.589844 269.8125 268.695312 269.8125 277.429688 C 269.8125 286.164062 262.691406 293.269531 253.941406 293.269531 Z M 253.941406 293.269531"/></g></svg>